<svg width="24" height="25" viewBox="0 0 24 25" fill="none" xmlns="http://www.w3.org/2000/svg">
<circle cx="12" cy="12.5679" r="11.5" stroke="#4B4543"/>
<path d="M17 9.46895C16.6242 9.632 16.2267 9.73978 15.82 9.78895C16.2491 9.53261 16.5706 9.12934 16.725 8.65395C16.3218 8.89398 15.8804 9.0631 15.42 9.15395C15.1123 8.82024 14.7025 8.5981 14.2549 8.52238C13.8073 8.44666 13.3473 8.52163 12.9469 8.73555C12.5465 8.94946 12.2285 9.29022 12.0426 9.70437C11.8568 10.1185 11.8136 10.5826 11.92 11.024C11.1047 10.9827 10.3072 10.7704 9.57933 10.4009C8.85143 10.0313 8.20942 9.5128 7.695 8.87895C7.51457 9.19404 7.41976 9.55086 7.42 9.91395C7.41936 10.2511 7.50211 10.5833 7.66088 10.8807C7.81965 11.1782 8.04951 11.4318 8.33 11.619C8.00399 11.6101 7.68494 11.5226 7.4 11.364V11.389C7.40244 11.8614 7.568 12.3185 7.86866 12.6829C8.16932 13.0474 8.58663 13.2968 9.05 13.389C8.87163 13.4432 8.68644 13.4719 8.5 13.474C8.37095 13.4724 8.24221 13.4607 8.115 13.439C8.24695 13.8454 8.50231 14.2005 8.84554 14.455C9.18876 14.7095 9.60279 14.8507 10.03 14.859C9.3086 15.4266 8.41794 15.7364 7.5 15.739C7.33287 15.7395 7.16587 15.7295 7 15.709C7.93721 16.3141 9.02941 16.6353 10.145 16.634C10.9148 16.6419 11.6786 16.4965 12.3916 16.206C13.1045 15.9155 13.7525 15.4859 14.2976 14.9422C14.8427 14.3985 15.274 13.7516 15.5663 13.0394C15.8586 12.3272 16.006 11.5638 16 10.794C16 10.709 16 10.619 16 10.529C16.3923 10.2364 16.7307 9.87767 17 9.46895Z" fill="#4B4543"/>
</svg>
