<svg width="20" height="21" viewBox="0 0 20 21" fill="none" xmlns="http://www.w3.org/2000/svg">
<path d="M5 15.5V12M15 15.5V12M14.5 8.5H16.5C17.3284 8.5 18 9.17157 18 10V17C18 17.8284 17.3284 18.5 16.5 18.5H3.5C2.67157 18.5 2 17.8284 2 17V10C2 9.17157 2.67157 8.5 3.5 8.5H5.5M7.17078 5.32861L9.9992 2.50018M9.9992 2.50018L12.6371 5.13806M9.9992 2.50018L9.99932 8.28546M12 13.5C12 12.3954 11.1046 11.5 10 11.5C8.89543 11.5 8 12.3954 8 13.5C8 14.6046 8.89543 15.5 10 15.5C11.1046 15.5 12 14.6046 12 13.5Z" stroke="#221F1F" stroke-width="1.2" stroke-linecap="round" stroke-linejoin="round"/>
</svg>
