<svg width="331" height="257" viewBox="0 0 331 257" fill="none" xmlns="http://www.w3.org/2000/svg">
<path d="M233.242 89.7991V90.8263C233.213 90.7693 233.099 90.7693 233.099 90.7693C233.185 90.4554 233.213 90.1415 233.242 89.7991ZM233.242 89.7991V86.5747C233.356 87.6876 233.356 88.7433 233.242 89.7991Z" stroke="#FAFAFA" stroke-width="2.85345"/>
<path d="M312.082 65.2019C304.149 53.9023 292.393 43.744 276.842 34.7556C261.262 25.7673 243.685 18.9761 224.11 14.4106C204.393 9.87361 184.59 7.64792 164.359 7.61938C144.128 7.56231 124.125 9.73094 104.579 14.2394C85.0331 18.6337 67.5129 25.3393 51.9331 34.3562C36.4674 43.2875 24.8253 53.3887 17.1495 64.7454C9.44523 75.9594 5.67868 87.4874 5.73575 99.1865C5.79282 108.717 8.38951 118.105 13.6399 127.464C14.8098 129.547 16.0938 131.602 17.5205 133.685C21.4868 139.335 26.3377 144.699 32.1872 149.807H32.2158C38.0653 154.886 44.8566 159.68 52.6465 164.188C64.9448 171.293 78.5558 176.972 93.3937 181.252C96.133 182.108 98.9294 182.85 101.754 183.534C102.981 183.877 104.237 184.191 105.492 184.476C106.719 184.761 107.975 185.047 109.202 185.275C112.968 186.103 116.735 186.844 120.501 187.472C135.311 190.012 150.234 191.296 165.358 191.324C168.782 191.324 172.177 191.267 175.573 191.125C192.294 190.554 208.759 188.385 224.909 184.704C244.569 180.253 262.061 173.519 277.555 164.588C285.117 160.222 291.737 155.599 297.444 150.691C303.493 145.498 308.458 140.019 312.339 134.198C313.651 132.287 314.85 130.403 315.963 128.491C321.299 119.132 323.981 109.659 323.981 100.014V99.7572C323.895 88.0866 319.9 76.5872 312.082 65.2019ZM297.444 106.292C296.388 113.796 293.306 121.187 288.341 128.463C288.313 128.491 288.284 128.548 288.256 128.577C281.893 137.993 272.162 146.468 259.151 153.973C246.253 161.42 231.558 167.042 215.179 170.78C206.704 172.72 198.172 174.147 189.612 175.06H189.555C181.822 175.887 174.032 176.287 166.128 176.287H165.272C150.406 176.287 135.739 174.774 121.215 171.921C120.987 171.864 120.758 171.807 120.501 171.75C118.704 171.407 116.878 171.008 115.08 170.608C113.111 170.123 111.142 169.638 109.202 169.125C105.036 167.983 100.955 166.756 97.0176 165.387C96.9891 165.387 96.9891 165.358 96.9891 165.358C95.7621 164.958 94.5922 164.53 93.3937 164.074C85.4041 161.135 77.871 157.654 70.9085 153.63C57.9539 146.154 48.2236 137.565 41.5466 128.149C41.4039 127.949 41.2897 127.75 41.1471 127.55C36.2391 120.159 33.2145 112.74 32.2158 105.236C31.9304 103.238 31.8163 101.241 31.8163 99.2436C31.6736 89.4277 34.7553 79.8116 41.2327 70.3667C47.71 60.8932 57.4403 52.4185 70.3378 44.971C83.321 37.4664 98.0448 31.8451 114.309 28.1642C130.717 24.4262 147.467 22.5715 164.445 22.6571C181.423 22.6285 197.944 24.5403 214.408 28.3354C230.844 32.1305 245.597 37.8088 258.58 45.3134C271.535 52.7894 281.379 61.3213 287.942 70.7947C294.505 80.2967 297.929 89.9128 297.872 99.7001C297.9 101.897 297.786 104.094 297.444 106.292Z" stroke="#FAFAFA" stroke-width="2.85345"/>
<path d="M208.215 94.7921V138.678C206.903 137.394 205.191 136.139 203.051 134.912C198.457 132.258 194.062 130.574 189.582 129.975V116.735C189.582 116.364 189.554 115.965 189.497 115.594C189.04 111.142 186.159 105.778 180.908 99.4717C175.03 92.4522 171.292 87.316 170.15 84.0631C169.523 82.5222 169.494 81.067 170.008 79.7544C170.607 78.2421 171.977 76.9009 174.031 75.7025C178.054 73.3627 182.563 72.4781 187.5 72.7349C192.693 72.9917 197.743 74.7609 203.051 77.8426C206.874 80.0397 209.385 82.294 210.47 84.5482C210.784 85.1474 210.983 85.7466 211.097 86.3459C211.44 89.2564 210.555 92.1384 208.215 94.7921Z" stroke="#FAFAFA" stroke-width="2.85345"/>
<path d="M236.065 67.6272V124.696L233.24 126.323V89.7985C233.354 88.7427 233.354 87.6869 233.24 86.5741C232.641 81.7232 229.816 77.6143 224.737 74.1616L227.818 72.3925L236.065 67.6272Z" stroke="#FAFAFA" stroke-width="2.85345"/>
<path d="M228.589 156.884V99.8152C231.071 96.9903 232.612 93.9942 233.097 90.7698C233.154 90.7698 233.211 90.7701 233.24 90.8271V143.644C233.725 148.466 232.156 152.861 228.589 156.884Z" stroke="#FAFAFA" stroke-width="2.85345"/>
<path d="M228.592 99.8141V156.883L208.218 151.861V94.792L228.592 99.8141Z" stroke="#FAFAFA" stroke-width="2.85345"/>
<path d="M120.501 133.856V171.749C118.703 171.407 116.877 171.007 115.079 170.608C113.11 170.123 111.141 169.638 109.201 169.124V140.39L120.501 133.856Z" stroke="#FAFAFA" stroke-width="2.85345"/>
<path d="M297.871 99.7007C297.9 101.898 297.785 104.095 297.443 106.292C296.387 113.797 293.305 121.187 288.34 128.463C288.226 128.264 288.084 128.064 287.941 127.864C281.378 118.391 271.534 109.859 258.579 102.383C251.588 98.331 244.084 94.8213 236.094 91.8823V67.6568L220.286 58.554L208.986 65.0884C199.855 61.6357 190.496 60.1234 181.279 60.6085C173.775 60.9223 167.326 62.2635 161.819 64.7174C160.563 65.2596 159.336 65.8591 158.166 66.5439C151.204 70.5673 147.637 75.1043 147.323 80.0978V80.3258C136.195 81.1248 125.181 82.7512 114.309 85.2337C98.0443 88.9147 83.3205 94.536 70.3373 102.041C57.4397 109.488 47.7095 117.963 41.2321 127.436C41.2036 127.465 41.1751 127.522 41.1465 127.55C36.2386 120.16 33.2137 112.741 32.215 105.236C31.9296 103.239 31.8158 101.242 31.8158 99.2441C31.6731 89.4283 34.7548 79.8122 41.2321 70.3673C47.7095 60.8938 57.4397 52.4191 70.3373 44.9716C83.3205 37.467 98.0443 31.8457 114.309 28.1649C130.716 24.4268 147.466 22.5721 164.444 22.6577C181.422 22.6292 197.944 24.541 214.408 28.3361C230.844 32.131 245.596 37.8094 258.579 45.314C271.534 52.79 281.378 61.3218 287.941 70.7953C294.504 80.2973 297.928 89.9134 297.871 99.7007Z" stroke="#FAFAFA" stroke-width="2.85345"/>
<path d="M233.241 86.5742V89.7986C233.213 90.141 233.184 90.4549 233.099 90.7688C232.614 93.9931 231.073 96.9893 228.59 99.8142L208.217 94.7921C210.556 92.1384 211.441 89.2564 211.099 86.3459C210.984 85.7467 210.785 85.1475 210.471 84.5482C209.387 82.294 206.876 80.0398 203.052 77.8426C197.744 74.7609 192.694 72.9918 187.501 72.735C182.564 72.4781 178.056 73.3627 174.032 75.7025C171.978 76.901 170.608 78.2421 170.009 79.7544C169.495 81.067 169.524 82.5223 170.152 84.0631C171.293 87.3161 175.031 92.4523 180.909 99.4718C186.159 105.778 189.041 111.142 189.498 115.594C189.555 115.965 189.584 116.364 189.584 116.735V116.878C189.584 117.192 189.584 117.477 189.555 117.762C189.555 117.905 189.527 118.076 189.498 118.219C189.441 118.818 189.298 119.417 189.127 119.988C187.9 123.726 185.418 127.093 181.737 130.061H181.708C180.338 131.174 178.826 132.201 177.143 133.171C174.831 134.484 172.52 135.625 170.123 136.538C163.36 139.277 156.284 140.447 148.979 140.048C148.494 140.019 148.037 139.991 147.552 139.934C139.848 139.392 132.401 137.965 125.353 135.596C123.698 135.083 122.071 134.484 120.473 133.827L109.173 140.362L96.9607 133.342L93.3654 131.259L96.9607 129.176L105.15 124.468C99.8141 119.474 96.9607 114.395 96.9607 109.345V109.116C96.9322 103.923 99.272 98.6728 104.522 93.3083L125.353 98.5872C120.987 103.181 119.218 107.461 120.131 111.513C120.502 114.567 122.328 117.249 125.353 119.589C126.323 120.388 127.436 121.129 128.634 121.843C133.599 124.696 138.992 126.522 144.956 127.264C145.755 127.35 146.525 127.407 147.296 127.436C149.321 127.521 151.262 127.407 153.145 127.036H153.174C155.97 126.494 158.624 125.495 161.249 123.983C163.161 122.87 164.559 121.643 165.472 120.33C166.642 118.618 166.956 116.707 166.385 114.624C165.329 110.943 161.705 105.35 155.713 97.8738C150.035 91.0256 147.296 85.1189 147.296 80.2966V80.0683C147.609 75.0748 151.176 70.5378 158.139 66.5144C159.309 65.8296 160.536 65.2304 161.791 64.6882C167.298 62.2343 173.747 60.8931 181.252 60.5793C190.468 60.0942 199.828 61.6065 208.959 65.0592L220.258 58.5248L236.066 67.6273L227.82 72.3925L224.738 74.1617C229.817 77.6143 232.642 81.7233 233.241 86.5742Z" stroke="#FAFAFA" stroke-width="2.85345"/>
<path d="M233.243 89.7991V86.5747C233.357 87.6876 233.357 88.7433 233.243 89.7991Z" stroke="#FAFAFA" stroke-width="2.85345"/>
<path d="M109.202 140.39V169.125C105.036 167.983 100.955 166.756 97.0176 165.387C96.989 165.387 96.989 165.358 96.989 165.358C95.762 164.959 94.5921 164.531 93.3937 164.074V131.288L96.989 133.371L109.202 140.39Z" stroke="#FAFAFA" stroke-width="2.85345"/>
<path d="M165.472 120.33C164.559 121.643 163.16 122.87 161.249 123.983C158.623 125.495 155.97 126.494 153.173 127.007H153.145C151.261 127.407 149.321 127.521 147.295 127.435V80.2965C147.295 85.1188 150.034 91.0255 155.713 97.8737C161.705 105.35 165.329 110.943 166.385 114.623C166.955 116.707 166.642 118.618 165.472 120.33Z" stroke="#FAFAFA" stroke-width="2.85345"/>
<path d="M125.353 98.5876V119.589C122.329 117.249 120.502 114.567 120.131 111.514C119.218 107.462 120.987 103.182 125.353 98.5876Z" stroke="#FAFAFA" stroke-width="2.85345"/>
<path d="M105.15 124.469L96.9609 129.177V109.345C96.9609 114.396 99.8144 119.475 105.15 124.469Z" stroke="#FAFAFA" stroke-width="2.85345"/>
<path d="M323.982 100.014V156.826C324.039 168.525 320.158 179.996 312.34 191.267C304.778 202.567 293.136 212.668 277.556 221.657C262.062 230.588 244.57 237.322 224.91 241.773C205.478 246.196 185.59 248.45 165.359 248.393C145.099 248.365 125.211 246.054 105.493 241.545C85.9186 236.951 68.2272 230.246 52.6474 221.257C37.0961 212.269 25.454 202.053 17.5214 190.754C9.70299 179.369 5.79376 167.926 5.73669 156.256V99.1866C5.79376 108.717 8.39046 118.105 13.6408 127.464C14.8107 129.547 16.0947 131.602 17.5214 133.685C21.4877 139.335 26.3386 144.699 32.1881 149.807H32.2167C38.0662 154.886 44.8574 159.68 52.6474 164.188C64.9457 171.293 78.5567 176.972 93.3946 181.252C96.1339 182.108 98.9303 182.85 101.755 183.535C102.982 183.877 104.238 184.191 105.493 184.476C106.72 184.762 107.976 185.047 109.203 185.275C112.969 186.103 116.736 186.845 120.502 187.472C135.312 190.012 150.235 191.296 165.359 191.324C168.783 191.324 172.178 191.267 175.574 191.125C192.295 190.554 208.76 188.385 224.91 184.704C244.57 180.253 262.062 173.519 277.556 164.588C285.118 160.222 291.738 155.599 297.445 150.691C303.494 145.498 308.459 140.019 312.34 134.198C313.652 132.287 314.851 130.403 315.964 128.492C321.3 119.132 323.982 109.659 323.982 100.014Z" stroke="#FAFAFA" stroke-width="2.85345"/>
<path d="M189.611 116.906V175.06H189.554C181.822 175.887 174.032 176.287 166.128 176.287H165.272C150.405 176.287 135.738 174.774 121.214 171.921C120.986 171.864 120.758 171.807 120.501 171.75V133.856C122.099 134.512 123.725 135.111 125.38 135.625C132.428 137.993 139.876 139.42 147.58 139.962C148.065 140.019 148.522 140.048 149.007 140.076C156.312 140.476 163.388 139.306 170.151 136.567C172.548 135.653 174.859 134.512 177.17 133.199C178.854 132.229 180.366 131.202 181.736 130.089H181.765C185.445 127.122 187.928 123.755 189.155 120.017C189.326 119.446 189.469 118.847 189.526 118.247C189.554 118.105 189.583 117.933 189.583 117.791C189.611 117.505 189.611 117.22 189.611 116.906Z" stroke="#FAFAFA" stroke-width="2.85345"/>
</svg>
