<svg width="20" height="20" viewBox="0 0 20 20" fill="none" xmlns="http://www.w3.org/2000/svg">
<path d="M8.9584 2.04258C9.54173 1.55091 10.4834 1.55091 11.0501 2.04258L12.3667 3.16758C12.6167 3.37591 13.0917 3.55091 13.4251 3.55091H14.8417C15.7251 3.55091 16.4501 4.27591 16.4501 5.15924V6.57591C16.4501 6.90924 16.6251 7.37591 16.8334 7.62591L17.9584 8.94258C18.4501 9.52591 18.4501 10.4676 17.9584 11.0342L16.8334 12.3509C16.6251 12.6009 16.4501 13.0676 16.4501 13.4009V14.8176C16.4501 15.7009 15.7251 16.4259 14.8417 16.4259H13.4251C13.0917 16.4259 12.6251 16.6009 12.3751 16.8092L11.0584 17.9342C10.4751 18.4259 9.5334 18.4259 8.96673 17.9342L7.65007 16.8092C7.40007 16.6009 6.92507 16.4259 6.60007 16.4259H5.14173C4.2584 16.4259 3.5334 15.7009 3.5334 14.8176V13.3926C3.5334 13.0676 3.36673 12.5926 3.1584 12.3509L2.0334 11.0259C1.55007 10.4509 1.55007 9.51758 2.0334 8.94258L3.1584 7.61758C3.36673 7.36758 3.5334 6.90091 3.5334 6.57591V5.16758C3.5334 4.28424 4.2584 3.55924 5.14173 3.55924H6.5834C6.91673 3.55924 7.3834 3.38424 7.6334 3.17591L8.9584 2.04258Z" stroke="#FF7C53" stroke-width="1.5" stroke-linecap="round" stroke-linejoin="round"/>
<path d="M10 6.77539V10.8004" stroke="#FF7C53" stroke-width="1.5" stroke-linecap="round" stroke-linejoin="round"/>
<path d="M9.99561 13.334H10.0031" stroke="#FF7C53" stroke-width="2" stroke-linecap="round" stroke-linejoin="round"/>
</svg>
