<svg width="24" height="25" viewBox="0 0 24 25" fill="none" xmlns="http://www.w3.org/2000/svg">
<circle cx="12" cy="12.5679" r="11.5" stroke="#4B4543"/>
<path d="M14.67 9.29787C14.5513 9.29787 14.4353 9.33306 14.3367 9.39899C14.238 9.46492 14.1611 9.55863 14.1157 9.66826C14.0703 9.7779 14.0584 9.89854 14.0815 10.0149C14.1047 10.1313 14.1618 10.2382 14.2457 10.3221C14.3296 10.406 14.4366 10.4632 14.5529 10.4863C14.6693 10.5095 14.79 10.4976 14.8996 10.4522C15.0092 10.4068 15.103 10.3299 15.1689 10.2312C15.2348 10.1325 15.27 10.0165 15.27 9.89787C15.27 9.73874 15.2068 9.58613 15.0943 9.47361C14.9817 9.36109 14.8291 9.29787 14.67 9.29787ZM16.97 10.5079C16.9603 10.093 16.8826 9.68257 16.74 9.29287C16.6129 8.95944 16.415 8.65751 16.16 8.40787C15.9124 8.15158 15.6098 7.95496 15.275 7.83287C14.8863 7.68595 14.4754 7.60648 14.06 7.59787C13.53 7.56787 13.36 7.56787 12 7.56787C10.64 7.56787 10.47 7.56787 9.94 7.59787C9.52458 7.60648 9.11367 7.68595 8.725 7.83287C8.39084 7.9562 8.08847 8.15265 7.84 8.40787C7.58371 8.65546 7.38709 8.95809 7.265 9.29287C7.11808 9.68154 7.0386 10.0924 7.03 10.5079C7 11.0379 7 11.2079 7 12.5679C7 13.9279 7 14.0979 7.03 14.6279C7.0386 15.0433 7.11808 15.4542 7.265 15.8429C7.38709 16.1777 7.58371 16.4803 7.84 16.7279C8.08847 16.9831 8.39084 17.1795 8.725 17.3029C9.11367 17.4498 9.52458 17.5293 9.94 17.5379C10.47 17.5679 10.64 17.5679 12 17.5679C13.36 17.5679 13.53 17.5679 14.06 17.5379C14.4754 17.5293 14.8863 17.4498 15.275 17.3029C15.6098 17.1808 15.9124 16.9842 16.16 16.7279C16.4161 16.4792 16.6142 16.177 16.74 15.8429C16.8826 15.4532 16.9603 15.0427 16.97 14.6279C16.97 14.0979 17 13.9279 17 12.5679C17 11.2079 17 11.0379 16.97 10.5079ZM16.07 14.5679C16.0664 14.8853 16.0089 15.1997 15.9 15.4979C15.8202 15.7155 15.6919 15.9121 15.525 16.0729C15.3628 16.2381 15.1666 16.3661 14.95 16.4479C14.6519 16.5567 14.3374 16.6142 14.02 16.6179C13.52 16.6429 13.335 16.6479 12.02 16.6479C10.705 16.6479 10.52 16.6479 10.02 16.6179C9.69045 16.624 9.3623 16.5733 9.05 16.4679C8.84289 16.3819 8.65568 16.2543 8.5 16.0929C8.33404 15.9322 8.20742 15.7355 8.13 15.5179C8.00793 15.2154 7.94022 14.8938 7.93 14.5679C7.93 14.0679 7.9 13.8829 7.9 12.5679C7.9 11.2529 7.9 11.0679 7.93 10.5679C7.93224 10.2434 7.99148 9.92184 8.105 9.61787C8.19302 9.40683 8.32813 9.2187 8.5 9.06787C8.65191 8.89596 8.83964 8.75942 9.05 8.66787C9.35478 8.55789 9.676 8.50041 10 8.49787C10.5 8.49787 10.685 8.46787 12 8.46787C13.315 8.46787 13.5 8.46787 14 8.49787C14.3174 8.50151 14.6319 8.55899 14.93 8.66787C15.1572 8.7522 15.3611 8.88929 15.525 9.06787C15.6889 9.22146 15.8169 9.40924 15.9 9.61787C16.0111 9.92234 16.0686 10.2438 16.07 10.5679C16.095 11.0679 16.1 11.2529 16.1 12.5679C16.1 13.8829 16.095 14.0679 16.07 14.5679ZM12 10.0029C11.4929 10.0039 10.9975 10.1551 10.5763 10.4376C10.1552 10.72 9.82719 11.121 9.63382 11.5897C9.44044 12.0585 9.39036 12.5741 9.4899 13.0713C9.58943 13.5686 9.83412 14.0251 10.193 14.3834C10.552 14.7416 11.009 14.9854 11.5064 15.0839C12.0039 15.1825 12.5193 15.1314 12.9877 14.9371C13.4561 14.7429 13.8564 14.4141 14.1381 13.9924C14.4197 13.5707 14.57 13.075 14.57 12.5679C14.5707 12.2304 14.5046 11.8962 14.3756 11.5843C14.2466 11.2725 14.0573 10.9893 13.8184 10.7509C13.5796 10.5125 13.296 10.3237 12.9839 10.1953C12.6718 10.067 12.3374 10.0016 12 10.0029ZM12 14.2329C11.6707 14.2329 11.3488 14.1352 11.075 13.9523C10.8012 13.7693 10.5878 13.5093 10.4617 13.205C10.3357 12.9008 10.3027 12.566 10.367 12.243C10.4312 11.9201 10.5898 11.6234 10.8227 11.3905C11.0555 11.1577 11.3522 10.9991 11.6752 10.9349C11.9982 10.8706 12.3329 10.9036 12.6372 11.0296C12.9414 11.1556 13.2014 11.369 13.3844 11.6428C13.5673 11.9167 13.665 12.2386 13.665 12.5679C13.665 12.7865 13.6219 13.003 13.5383 13.205C13.4546 13.407 13.3319 13.5906 13.1773 13.7452C13.0227 13.8998 12.8392 14.0225 12.6372 14.1061C12.4352 14.1898 12.2187 14.2329 12 14.2329Z" fill="#4B4543"/>
</svg>
