<svg width="348" height="262" viewBox="0 0 348 262" fill="none" style="opacity: 0.2" xmlns="http://www.w3.org/2000/svg" >

<path d="M208.673 168.585V226.055L157.324 255.709V198.239L184.967 182.263L207.064 169.504L208.673 168.585Z" stroke="#FAFAFA" stroke-width="2.87349"/>
<path d="M141.779 129.966L141.089 131.431L131.837 151.574L120.889 175.367L87.9586 156.344V98.8745L136.118 126.69L141.779 129.966Z" stroke="#FAFAFA" stroke-width="2.87349"/>
<path d="M275.31 176.947V234.417L249.247 249.474V192.004L256.833 187.608L275.31 176.947Z" stroke="#FAFAFA" stroke-width="2.87349"/>
<path d="M249.247 192.004V249.473L208.673 226.055V168.585L249.247 192.004Z" stroke="#FAFAFA" stroke-width="2.87349"/>
<path d="M297.406 164.189V221.659L275.309 208.901V176.947L256.832 166.287V140.77L278.383 153.212L297.406 164.189Z" stroke="#FAFAFA" stroke-width="2.87349"/>
<path d="M282.895 125.743L341.687 91.8066L313.469 75.4852L254.677 109.45L224.477 92.0077L203.5 79.8816L207.293 71.6634L228.27 26.3198L192.753 5.8031L133.962 39.7389L95.7444 17.6706L69.6819 32.7276L107.899 54.796L85.8022 67.5543L69.6819 58.2442L47.5847 45.4859L21.5222 60.543L59.7396 82.5827L21.5222 104.651L8.39038 112.237L36.608 128.53L38.1884 127.61L64.251 112.582L86.3481 99.8236L87.9573 98.8754L136.117 126.691L141.778 129.967L141.088 131.432L131.835 151.575L120.887 175.368L120.227 176.804L141.117 188.873L157.323 198.241L184.966 182.264L207.063 169.506L208.673 168.586L249.246 192.005L256.832 187.609L275.309 176.948L256.832 166.287L256.315 165.971L234.735 153.529L256.832 140.771L278.383 153.213L297.406 164.19L323.469 149.161L304.446 138.185L282.895 125.743ZM152.726 106.174L136.117 96.6053L135.571 96.2892L114.02 83.847L136.117 71.0887L157.668 83.5309L162.007 86.0309L152.726 106.174ZM166.231 160.512L172.237 147.524L180.455 152.294L166.231 160.512ZM172.926 62.2384L162.18 56.0316L180.714 45.3422L172.926 62.2384ZM206.518 137.236L204.19 135.886L192.524 129.162L183.213 123.789L192.524 103.645L213.5 115.743L228.615 124.478L206.518 137.236Z" stroke="#FAFAFA" stroke-width="2.87349"/>
<path d="M256.831 140.77V166.287L256.314 165.971L234.734 153.528L256.831 140.77Z" stroke="#FAFAFA" stroke-width="2.87349"/>
<path d="M180.454 152.295L166.23 160.513L172.236 147.525L180.454 152.295Z" stroke="#FAFAFA" stroke-width="2.87349"/>
<path d="M180.713 45.3417L172.925 62.2378L162.178 56.0311L180.713 45.3417Z" stroke="#FAFAFA" stroke-width="2.87349"/>
<path d="M228.615 124.478L206.518 137.236L204.19 135.885L192.524 129.161V103.645L213.5 115.742L228.615 124.478Z" stroke="#FAFAFA" stroke-width="2.87349"/>
<path d="M192.523 103.645V129.161L183.213 123.788L192.523 103.645Z" stroke="#FAFAFA" stroke-width="2.87349"/>
<path d="M136.116 71.088V96.6046L135.57 96.2885L114.019 83.8463L136.116 71.088Z" stroke="#FAFAFA" stroke-width="2.87349"/>
<path d="M162.008 86.0302L152.726 106.173L136.118 96.6046V71.088L157.669 83.5302L162.008 86.0302Z" stroke="#FAFAFA" stroke-width="2.87349"/>
<path d="M341.687 91.8058V149.276L323.469 159.793V149.161L304.447 138.184L282.896 125.742L341.687 91.8058Z" stroke="#FAFAFA" stroke-width="2.87349"/>
<path d="M323.469 149.161V206.63L297.406 221.659V164.189L323.469 149.161Z" stroke="#FAFAFA" stroke-width="2.87349"/>
<path d="M228.271 26.3188V83.7887L224.478 92.0069L203.502 79.8808L207.295 71.6626L228.271 26.3188Z" stroke="#FAFAFA" stroke-width="2.87349"/>
<path d="M107.9 54.7964L85.8024 67.5547L69.6821 58.2446V32.728L107.9 54.7964Z" stroke="#FAFAFA" stroke-width="2.87349"/>
<path d="M59.7406 82.5823L21.5231 104.651V60.5426L59.7406 82.5823Z" stroke="#FAFAFA" stroke-width="2.87349"/>
<path d="M36.608 128.53V186L8.39038 169.707V112.237L36.608 128.53Z" stroke="#FAFAFA" stroke-width="2.87349"/>
<path d="M87.9582 98.8745V156.344L36.6089 185.999V128.529L38.1893 127.609L64.2519 112.581L86.349 99.8228L87.9582 98.8745Z" stroke="#FAFAFA" stroke-width="2.87349"/>
<path d="M157.323 198.24V255.71L120.226 234.274V176.804L141.117 188.872L157.323 198.24Z" stroke="#FAFAFA" stroke-width="2.87349"/>
</svg>
