<svg width="20" height="20" viewBox="0 0 20 20" fill="none" xmlns="http://www.w3.org/2000/svg">
<path d="M3.42147 13.802L2.92348 13.4674L2.92348 13.4674L3.42147 13.802ZM4.39062 10.6959L3.79062 10.6894V10.6959H4.39062ZM4.41096 8.81783L5.01096 8.82433V8.81783H4.41096ZM16.584 13.8171L17.0884 13.4921L17.0884 13.4921L16.584 13.8171ZM15.6513 10.6959L15.0513 10.689V10.6959H15.6513ZM15.6717 8.91089L16.2717 8.91773V8.91089H15.6717ZM7.77794 16.9C7.44657 16.9 7.17794 17.1686 7.17794 17.5C7.17794 17.8314 7.44657 18.1 7.77794 18.1V16.9ZM12.2224 18.1C12.5538 18.1 12.8224 17.8314 12.8224 17.5C12.8224 17.1686 12.5538 16.9 12.2224 16.9V18.1ZM3.91947 14.1367C4.4609 13.331 4.99062 12.1401 4.99062 10.6959H3.79062C3.79062 11.8438 3.36836 12.8054 2.92348 13.4674L3.91947 14.1367ZM4.99059 10.7024L5.01093 8.82433L3.811 8.81133L3.79066 10.6894L4.99059 10.7024ZM17.0884 13.4921C16.6617 12.83 16.2513 11.8591 16.2513 10.6959H15.0513C15.0513 12.1425 15.5602 13.336 16.0797 14.1421L17.0884 13.4921ZM16.2513 10.7027L16.2717 8.91773L15.0717 8.90406L15.0514 10.689L16.2513 10.7027ZM16.2717 8.91089C16.2717 5.1101 13.5308 1.9 10.0002 1.9V3.1C12.7341 3.1 15.0717 5.63041 15.0717 8.91089H16.2717ZM16.2446 15.2875C16.7746 15.2875 17.0723 14.8755 17.1826 14.5826C17.298 14.2762 17.319 13.8499 17.0884 13.4921L16.0797 14.1421C16.064 14.1179 16.0662 14.1057 16.0667 14.1171C16.0673 14.1284 16.065 14.1452 16.0596 14.1597C16.0534 14.1759 16.0523 14.167 16.0745 14.1473C16.0869 14.1363 16.1079 14.121 16.1384 14.1084C16.17 14.0954 16.2065 14.0875 16.2446 14.0875V15.2875ZM5.01096 8.81783C5.01096 5.58875 7.3117 3.1 10.0002 3.1V1.9C6.51497 1.9 3.81096 5.06844 3.81096 8.81783H5.01096ZM3.75652 14.0875C3.79543 14.0875 3.83265 14.0957 3.86463 14.1091C3.89556 14.1221 3.91644 14.1377 3.92846 14.1485C3.94996 14.168 3.94777 14.1757 3.94113 14.1575C3.93513 14.1411 3.93288 14.1227 3.93363 14.1105C3.93439 14.0982 3.93658 14.1112 3.91947 14.1367L2.92348 13.4674C2.68212 13.8265 2.70109 14.2601 2.81396 14.5692C2.92141 14.8634 3.21819 15.2875 3.75652 15.2875V14.0875ZM16.2446 14.0875H3.75652V15.2875H16.2446V14.0875ZM7.77794 18.1H12.2224V16.9H7.77794V18.1Z" fill="black"/>
</svg>
