<svg width="25" height="24" viewBox="0 0 25 24" fill="none" xmlns="http://www.w3.org/2000/svg">
<rect width="24" height="24" transform="translate(0.5)" fill="white"/>
<path d="M7.70002 12C7.70002 13.3255 6.62551 14.4 5.30002 14.4C3.97454 14.4 2.90002 13.3255 2.90002 12C2.90002 10.6745 3.97454 9.59998 5.30002 9.59998C6.62551 9.59998 7.70002 10.6745 7.70002 12Z" stroke="#908B8B" stroke-width="2"/>
<path d="M14.9 12C14.9 13.3255 13.8255 14.4 12.5 14.4C11.1745 14.4 10.1 13.3255 10.1 12C10.1 10.6745 11.1745 9.59998 12.5 9.59998C13.8255 9.59998 14.9 10.6745 14.9 12Z" stroke="#908B8B" stroke-width="2"/>
<path d="M22.1 12C22.1 13.3255 21.0255 14.4 19.7 14.4C18.3745 14.4 17.3 13.3255 17.3 12C17.3 10.6745 18.3745 9.59998 19.7 9.59998C21.0255 9.59998 22.1 10.6745 22.1 12Z" stroke="#908B8B" stroke-width="2"/>
</svg>
