<svg width="20" height="20" viewBox="0 0 20 20" fill="none" xmlns="http://www.w3.org/2000/svg">
<path d="M17.2197 15.6442C17.2197 15.6442 16.2541 16.5926 16.0175 16.8706C15.6321 17.2819 15.1779 17.4762 14.5825 17.4762C14.5253 17.4762 14.4642 17.4762 14.407 17.4724C13.2735 17.4 12.2202 16.9582 11.4302 16.5811C9.27009 15.5376 7.37333 14.056 5.79715 12.1784C4.49576 10.613 3.62561 9.16576 3.04933 7.61185C2.69441 6.6635 2.56465 5.92463 2.6219 5.22765C2.66006 4.78204 2.8318 4.41261 3.14856 4.09649L4.44996 2.79776C4.63696 2.62256 4.83542 2.52734 5.03005 2.52734C5.27049 2.52734 5.46513 2.67207 5.58725 2.79395C5.59107 2.79776 5.59488 2.80156 5.5987 2.80537C5.8315 3.02246 6.05285 3.24717 6.28565 3.48712C6.40396 3.60899 6.52609 3.73087 6.64821 3.85655L7.6901 4.8963C8.09464 5.30002 8.09464 5.67326 7.6901 6.07698C7.57942 6.18743 7.47256 6.29787 7.36188 6.40452C7.0413 6.73206 7.29314 6.48074 6.96111 6.77781C6.95348 6.78543 6.94584 6.78924 6.94203 6.79685C6.61382 7.12439 6.67488 7.44432 6.74357 7.66141C6.74739 7.67283 6.75121 7.68426 6.75502 7.69569C7.02599 8.35077 7.40763 8.96776 7.98772 9.70283L7.99154 9.70664C9.04487 11.0016 10.1554 12.0108 11.3805 12.784C11.537 12.883 11.6973 12.963 11.8499 13.0392C11.9873 13.1077 12.1171 13.1725 12.2278 13.241C12.243 13.2486 12.2583 13.2601 12.2736 13.2677C12.4033 13.3324 12.5254 13.3629 12.6514 13.3629C12.9681 13.3629 13.1666 13.1649 13.2315 13.1001L13.9795 12.3536C14.1093 12.2241 14.3154 12.0679 14.5558 12.0679C14.7924 12.0679 14.9871 12.2165 15.1054 12.346C15.1092 12.3498 15.1092 12.3498 15.113 12.3536L17.2159 14.4521C17.609 14.8406 17.2197 15.6442 17.2197 15.6442Z" stroke="#908B8B" stroke-width="2" stroke-linecap="round" stroke-linejoin="round"/>
</svg>
