<svg width="241" height="265" viewBox="0 0 241 265" fill="none" xmlns="http://www.w3.org/2000/svg">
<path d="M230.418 167.476C227.463 174.359 223.88 180.913 219.743 187.054C215.063 194.021 209.679 200.481 203.694 206.302L206.199 210.555C207.85 213.372 206.912 217.006 204.098 218.659L171.165 238.039C168.351 239.691 164.73 238.752 163.07 235.935L161.362 233.015L146.476 207.673L143.709 202.969C142.058 200.152 142.996 196.528 145.81 194.866L178.744 175.486C181.558 173.833 185.178 174.772 186.838 177.589L188.564 180.537C203.197 163.908 211.902 141.937 211.33 117.956C210.185 69.9946 171.624 30.7465 123.739 28.8498C71.7274 26.7841 28.7483 68.5486 28.7483 120.181C28.7483 171.814 69.7107 211.57 120.044 211.57C122.22 211.57 124.527 212.546 126.572 213.992C128.617 215.429 130.38 217.344 131.468 219.231L131.797 219.776C137.068 228.903 130.493 240.358 119.959 240.348C119.603 240.348 119.246 240.348 118.89 240.348C54.9653 239.738 2.29676 188.377 0.0737086 124.435C-2.33695 54.8399 54.7027 -2.29521 124.218 0.0709444C185.816 2.17419 238.635 55.6286 240.07 117.318C240.483 135.148 237.012 152.125 230.418 167.476Z" fill="#1D4ED8"/>
<path d="M230.418 167.476C227.463 174.359 223.88 180.913 219.743 187.054C215.063 194.021 209.679 200.481 203.694 206.302L206.199 210.555C207.85 213.372 206.912 217.006 204.098 218.659L171.165 238.039C168.351 239.691 164.73 238.752 163.07 235.935L161.362 233.015L146.476 207.673L143.709 202.969C142.058 200.152 142.996 196.528 145.81 194.866L178.744 175.486C181.558 173.833 185.178 174.772 186.838 177.589L188.564 180.537C203.197 163.908 211.902 141.937 211.33 117.956C210.185 69.9946 171.624 30.7465 123.739 28.8498C71.7274 26.7841 28.7483 68.5486 28.7483 120.181C28.7483 171.814 69.7107 211.57 120.044 211.57C122.22 211.57 124.527 212.546 126.572 213.992C128.617 215.429 130.38 217.344 131.468 219.231L131.797 219.776C137.068 228.903 130.493 240.358 119.959 240.348C119.603 240.348 119.246 240.348 118.89 240.348C54.9653 239.738 2.29676 188.377 0.0737086 124.435C-2.33695 54.8399 54.7027 -2.29521 124.218 0.0709444C185.816 2.17419 238.635 55.6286 240.07 117.318C240.483 135.148 237.012 152.125 230.418 167.476Z" fill="url(#paint0_linear_3255_12075)"/>
<path d="M133.826 192.598L134.863 194.363C135.162 194.873 135.817 195.043 136.326 194.743L183.251 167.13C183.76 166.83 183.93 166.174 183.631 165.665L182.594 163.9C182.295 163.39 181.64 163.22 181.131 163.52L134.206 191.133C133.697 191.433 133.527 192.089 133.826 192.598Z" fill="#1D4ED8"/>
<path d="M133.826 192.598L134.863 194.363C135.162 194.873 135.817 195.043 136.326 194.743L183.251 167.13C183.76 166.83 183.93 166.174 183.631 165.665L182.594 163.9C182.295 163.39 181.64 163.22 181.131 163.52L134.206 191.133C133.697 191.433 133.527 192.089 133.826 192.598Z" fill="url(#paint1_linear_3255_12075)"/>
<path d="M123.446 182.107L125.78 186.082C126.46 187.239 127.949 187.626 129.105 186.946L179.96 157.019C181.116 156.339 181.503 154.848 180.823 153.691L178.489 149.716C177.809 148.558 176.32 148.172 175.163 148.852L124.309 178.778C123.152 179.459 122.766 180.949 123.446 182.107Z" fill="#1D4ED8"/>
<path d="M123.446 182.107L125.78 186.082C126.46 187.239 127.949 187.626 129.105 186.946L179.96 157.019C181.116 156.339 181.503 154.848 180.823 153.691L178.489 149.716C177.809 148.558 176.32 148.172 175.163 148.852L124.309 178.778C123.152 179.459 122.766 180.949 123.446 182.107Z" fill="url(#paint2_linear_3255_12075)"/>
<path d="M169.079 259.813L171.413 263.788C172.093 264.946 173.582 265.332 174.739 264.652L225.593 234.726C226.75 234.045 227.136 232.555 226.456 231.397L224.122 227.423C223.442 226.265 221.953 225.878 220.797 226.559L169.942 256.485C168.786 257.165 168.399 258.656 169.079 259.813Z" fill="#1D4ED8"/>
<path d="M169.079 259.813L171.413 263.788C172.093 264.946 173.582 265.332 174.739 264.652L225.593 234.726C226.75 234.045 227.136 232.555 226.456 231.397L224.122 227.423C223.442 226.265 221.953 225.878 220.797 226.559L169.942 256.485C168.786 257.165 168.399 258.656 169.079 259.813Z" fill="url(#paint3_linear_3255_12075)"/>
<path d="M166.267 247.848L167.303 249.612C167.602 250.122 168.257 250.292 168.767 249.993L215.691 222.379C216.2 222.08 216.37 221.424 216.071 220.914L215.034 219.149C214.735 218.64 214.08 218.47 213.571 218.769L166.646 246.383C166.137 246.682 165.967 247.338 166.267 247.848Z" fill="#1D4ED8"/>
<path d="M166.267 247.848L167.303 249.612C167.602 250.122 168.257 250.292 168.767 249.993L215.691 222.379C216.2 222.08 216.37 221.424 216.071 220.914L215.034 219.149C214.735 218.64 214.08 218.47 213.571 218.769L166.646 246.383C166.137 246.682 165.967 247.338 166.267 247.848Z" fill="url(#paint4_linear_3255_12075)"/>
<defs>
<linearGradient id="paint0_linear_3255_12075" x1="0" y1="120.174" x2="240.103" y2="120.174" gradientUnits="userSpaceOnUse">
<stop stop-color="#A0DFFF"/>
<stop offset="0.65" stop-color="#1D34A8"/>
<stop offset="0.82" stop-color="#171E54"/>
</linearGradient>
<linearGradient id="paint1_linear_3255_12075" x1="159.789" y1="180.936" x2="157.665" y2="177.328" gradientUnits="userSpaceOnUse">
<stop stop-color="#A0DFFF"/>
<stop offset="0.65" stop-color="#1D34A8"/>
<stop offset="0.82" stop-color="#171E54"/>
</linearGradient>
<linearGradient id="paint2_linear_3255_12075" x1="154.532" y1="171.983" x2="149.729" y2="163.819" gradientUnits="userSpaceOnUse">
<stop stop-color="#A0DFFF"/>
<stop offset="0.65" stop-color="#1D34A8"/>
<stop offset="0.82" stop-color="#171E54"/>
</linearGradient>
<linearGradient id="paint3_linear_3255_12075" x1="200.166" y1="249.689" x2="195.362" y2="241.526" gradientUnits="userSpaceOnUse">
<stop stop-color="#A0DFFF"/>
<stop offset="0.65" stop-color="#1D34A8"/>
<stop offset="0.82" stop-color="#171E54"/>
</linearGradient>
<linearGradient id="paint4_linear_3255_12075" x1="192.229" y1="236.186" x2="190.105" y2="232.578" gradientUnits="userSpaceOnUse">
<stop stop-color="#A0DFFF"/>
<stop offset="0.65" stop-color="#1D34A8"/>
<stop offset="0.82" stop-color="#171E54"/>
</linearGradient>
</defs>
</svg>
