<svg width="18" height="18" viewBox="0 0 18 18" fill="none" xmlns="http://www.w3.org/2000/svg">
<path d="M8.49969 1.78829C8.776 1.51198 9.224 1.51198 9.50031 1.78829L11.5186 3.80654C11.7949 4.08285 11.7949 4.53084 11.5186 4.80716L9.50031 6.8254C9.224 7.10172 8.776 7.10172 8.49969 6.8254L6.48144 4.80716C6.20513 4.53084 6.20513 4.08285 6.48144 3.80654L8.49969 1.78829Z" stroke="#E4932B" stroke-width="2"/>
<path d="M13.2739 6.5625C13.5502 6.28618 13.9982 6.28618 14.2745 6.5625L16.2928 8.58074C16.5691 8.85706 16.5691 9.30505 16.2928 9.58137L14.2745 11.5996C13.9982 11.8759 13.5502 11.8759 13.2739 11.5996L11.2557 9.58137C10.9793 9.30505 10.9793 8.85706 11.2557 8.58074L13.2739 6.5625Z" stroke="#E4932B" stroke-width="2"/>
<path d="M3.72548 6.5625C4.0018 6.28618 4.44979 6.28618 4.7261 6.5625L6.74435 8.58074C7.02066 8.85706 7.02066 9.30505 6.74435 9.58137L4.7261 11.5996C4.44979 11.8759 4.0018 11.8759 3.72548 11.5996L1.70724 9.58137C1.43092 9.30505 1.43092 8.85706 1.70724 8.58074L3.72548 6.5625Z" stroke="#E4932B" stroke-width="2"/>
<path d="M8.49969 11.3367C8.776 11.0604 9.224 11.0604 9.50031 11.3367L11.5186 13.355C11.7949 13.6313 11.7949 14.0793 11.5186 14.3556L9.50031 16.3738C9.224 16.6501 8.776 16.6501 8.49969 16.3738L6.48144 14.3556C6.20513 14.0793 6.20513 13.6313 6.48144 13.355L8.49969 11.3367Z" stroke="#E4932B" stroke-width="2"/>
</svg>
