<svg width="20" height="21" viewBox="0 0 20 21" fill="none" xmlns="http://www.w3.org/2000/svg">
<path d="M2 15.149L2.00018 5.52179C2.00019 4.84835 2.65238 4.36744 3.29574 4.56649L3.36987 4.58942C5.59654 5.27831 8.00387 5.27831 10.2305 4.58942C12.6646 3.83638 15.3074 3.90846 17.6896 4.79287L18.0002 4.90819L18 15.5602C18 15.7207 17.8399 15.8321 17.6894 15.7762V15.7762C15.3072 14.8918 12.6644 14.8197 10.2303 15.5728C8.00367 16.2616 5.59633 16.2616 3.36967 15.5728L2 15.149Z" stroke="#E4932B" stroke-width="1.2" stroke-linejoin="round"/>
<path d="M12 10.0728C12 11.1773 11.1046 12.0728 10 12.0728C8.89543 12.0728 8 11.1773 8 10.0728C8 8.96818 8.89543 8.07275 10 8.07275C11.1046 8.07275 12 8.96818 12 10.0728Z" stroke="#908B8B" stroke-width="1.2" stroke-linejoin="round"/>
</svg>
