<svg width="20" height="21" viewBox="0 0 20 21" fill="none" xmlns="http://www.w3.org/2000/svg">
<path fill-rule="evenodd" clip-rule="evenodd" d="M11.3969 3.67795C11.0407 2.21542 8.95934 2.21542 8.60308 3.67795C8.54989 3.89771 8.44557 4.10182 8.29859 4.27365C8.15162 4.44549 7.96615 4.58019 7.75728 4.66681C7.54842 4.75343 7.32205 4.7895 7.0966 4.77211C6.87115 4.75472 6.653 4.68434 6.45989 4.56671C5.1736 3.78295 3.70168 5.25485 4.48545 6.54112C4.99172 7.37175 4.54264 8.45552 3.59761 8.68521C2.13413 9.04053 2.13413 11.1228 3.59761 11.4771C3.81744 11.5304 4.02159 11.6348 4.19342 11.7819C4.36526 11.929 4.49993 12.1146 4.58646 12.3235C4.673 12.5325 4.70895 12.759 4.6914 12.9845C4.67385 13.21 4.60328 13.4282 4.48545 13.6212C3.70168 14.9075 5.1736 16.3794 6.45989 15.5956C6.65296 15.4778 6.87114 15.4072 7.09664 15.3897C7.32215 15.3721 7.54862 15.4081 7.7576 15.4946C7.96658 15.5812 8.15217 15.7158 8.29925 15.8877C8.44634 16.0595 8.55076 16.2636 8.60402 16.4835C8.95934 17.9469 11.0416 17.9469 11.396 16.4835C11.4494 16.2637 11.5539 16.0597 11.7011 15.888C11.8482 15.7163 12.0337 15.5817 12.2427 15.4952C12.4516 15.4087 12.678 15.3727 12.9034 15.3902C13.1288 15.4076 13.347 15.478 13.5401 15.5956C14.8264 16.3794 16.2983 14.9075 15.5145 13.6212C15.3969 13.4281 15.3265 13.21 15.3091 12.9845C15.2916 12.7591 15.3276 12.5327 15.4141 12.3238C15.5006 12.1149 15.6352 11.9293 15.8069 11.7822C15.9787 11.6351 16.1827 11.5306 16.4024 11.4771C17.8659 11.1218 17.8659 9.03959 16.4024 8.68521C16.1826 8.63196 15.9784 8.52754 15.8066 8.38045C15.6347 8.23337 15.5001 8.04778 15.4135 7.8388C15.327 7.62983 15.291 7.40337 15.3086 7.17786C15.3262 6.95236 15.3967 6.73419 15.5145 6.54112C16.2983 5.25485 14.8264 3.78295 13.5401 4.56671C13.347 4.68454 13.1289 4.7551 12.9034 4.77265C12.6778 4.79021 12.4514 4.75425 12.2424 4.66772C12.0334 4.58118 11.8478 4.44652 11.7007 4.27469C11.5537 4.10285 11.4492 3.89871 11.396 3.67888L11.3969 3.67795Z" stroke="#E4932B" stroke-width="1.2"/>
<path d="M11.6667 10.0811C11.6667 11.0015 10.9205 11.7477 10 11.7477C9.07953 11.7477 8.33333 11.0015 8.33333 10.0811C8.33333 9.16058 9.07953 8.41439 10 8.41439C10.9205 8.41439 11.6667 9.16058 11.6667 10.0811Z" stroke="#908B8B" stroke-width="1.2"/>
</svg>
