<svg width="20" height="21" viewBox="0 0 20 21" fill="none" xmlns="http://www.w3.org/2000/svg">
<path d="M11.9887 12.0698C10.8904 13.1681 9.10961 13.1681 8.01126 12.0698M11.9887 12.0698C13.0871 10.9714 13.0871 9.19067 11.9887 8.09232M11.9887 12.0698L14.9718 15.0529M8.01126 12.0698C6.91291 10.9714 6.91291 9.19067 8.01126 8.09232M8.01126 12.0698L5.02816 15.0529M8.01126 8.09232C9.10961 6.99397 10.8904 6.99397 11.9887 8.09232M8.01126 8.09232L5.02816 5.10921M11.9887 8.09232L14.9718 5.10921M15.3033 15.3844C12.3744 18.3133 7.62563 18.3133 4.6967 15.3844C1.76777 12.4554 1.76777 7.70669 4.6967 4.77775C7.62563 1.84882 12.3744 1.84882 15.3033 4.77775C18.2322 7.70669 18.2322 12.4554 15.3033 15.3844Z" stroke="#908B8B" stroke-width="1.2" stroke-linecap="round" stroke-linejoin="round"/>
</svg>
